<?xml version="1.0" standalone="no"?><!DOCTYPE svg PUBLIC "-//W3C//DTD SVG 1.1//EN" "http://www.w3.org/Graphics/SVG/1.1/DTD/svg11.dtd"><svg class="icon" width="64px" height="64.00px" viewBox="0 0 1024 1024" version="1.1" xmlns="http://www.w3.org/2000/svg"><path fill="#ffffff" d="M511.984 944.981c-238.731 0-432.963-194.233-432.963-432.98 0-238.714 194.232-432.979 432.963-432.979 238.747 0 432.995 194.266 432.995 432.979 0 238.746-194.248 432.98-432.995 432.98zM512 115.063c-218.875 0-396.92 178.079-396.92 396.937 0 218.892 178.046 396.92 396.92 396.92 218.875 0 396.92-178.028 396.92-396.92 0-218.858-178.045-396.937-396.92-396.937z m97.708 612.581c-74.52 0-155.704-34.4-211.873-89.741-68.414-67.45-118.985-184.862-77.97-269.597 23.087-47.729 50.503-71.916 81.455-71.916 22.325 0 38.528 13.023 43.856 17.285 16.863 13.599 55.56 70.258 53.868 109.023-1.2 26.925-15.205 40.321-24.473 49.184-3.653 3.518-6.681 6.461-7.814 8.998-0.541 1.217-1.624 2.368-2.892 3.754-6.917 7.509-16.372 17.792 26.791 61.53 24.221 23.239 35.028 28.009 43.806 28.009 1.76 0 3.365-0.202 4.956-0.372 1.488-0.203 2.941-0.372 4.549-0.372 4.685 0 8.373-1.184 13.158-3.247 2.571-1.116 5.582-4.161 9.083-7.712 9.015-9.134 22.613-22.969 49.944-24.153l2.689-0.067c37.565 0 92.499 34.47 107.975 53.142 15.002 18.029 20.448 36.702 16.203 55.441-5.869 25.878-29.276 48.103-71.577 67.957-18.08 8.525-38.85 12.854-61.734 12.854zM401.32 334.817c-13.92 0-30.732 18.232-46.123 49.961-32.119 66.368 10.571 167.002 70.376 225.962 49.065 48.404 119.645 78.442 184.135 78.442 16.98 0 32.067-3.044 44.871-9.03 41.251-19.451 48.879-35.654 50.231-41.743 1.574-6.799-1.082-14.037-8.32-22.765-8.829-10.588-54.394-38.935-77.649-38.935-12.769 0.508-17.2 5.041-24.558 12.516-5.396 5.446-11.907 12.009-21.345 16.136-7.459 3.213-16.761 6.494-28.973 6.494-26.842 0-42.621-1.69-80.608-38.155-56.693-57.404-46.41-78.884-35.552-101.615 1.049-2.199 2.114-4.398 3.112-6.664 4.194-9.404 10.926-15.864 16.355-21.04 7.611-7.307 12.194-11.67 12.685-23.307 0.98-22.224-28.55-68.77-39.543-77.631-4.616-3.687-11.601-8.626-19.094-8.626z" /></svg>