<?xml version="1.0" standalone="no"?><!DOCTYPE svg PUBLIC "-//W3C//DTD SVG 1.1//EN" "http://www.w3.org/Graphics/SVG/1.1/DTD/svg11.dtd"><svg class="icon" width="32px" height="32.00px" viewBox="0 0 1024 1024" version="1.1" xmlns="http://www.w3.org/2000/svg"><path fill="#ffffff" d="M864.632 510.601c0 194.527-157.702 352.222-352.235 352.222-194.534 0-352.236-157.695-352.236-352.222 0-194.526 157.702-352.22 352.236-352.22 194.533 0 352.235 157.695 352.235 352.22z m-352.235-289.8c-160.058 0-289.812 129.749-289.812 289.8 0 160.052 129.754 289.8 289.812 289.8 160.057 0 289.81-129.748 289.81-289.8 0-160.051-129.753-289.8-289.81-289.8zM351.219 510.601a157.5 157.5 0 1 0 322.355 0 157.5 157.5 0 1 0-322.355 0z" /></svg>