<?xml version="1.0" standalone="no"?><!DOCTYPE svg PUBLIC "-//W3C//DTD SVG 1.1//EN" "http://www.w3.org/Graphics/SVG/1.1/DTD/svg11.dtd"><svg class="icon" width="32px" height="20.00px" viewBox="0 0 1638 1024" version="1.1" xmlns="http://www.w3.org/2000/svg"><path d="M1092.374756 876.088889h-546.622578c-49.999644 0-90.7776-40.777956-90.7776-90.7776v-546.622578c0-49.999644 40.777956-90.7776 90.7776-90.7776h546.622578c49.999644 0 90.7776 40.777956 90.7776 90.7776v546.622578c0 49.999644-40.777956 90.7776-90.7776 90.7776z m0 0" fill="#3FCF77" /><path d="M772.943644 465.880178c0 10.724693 8.697173 19.421867 19.421867 19.421866s19.418453-8.697173 19.418453-19.421866-8.69376-19.418453-19.418453-19.418454-19.421867 8.69376-19.421867 19.418454z m0 0M662.264036 572.679964c0 7.507058 6.083698 13.595307 13.590755 13.595307 7.50592 0 13.590756-6.089387 13.590756-13.595307s-6.084836-13.590756-13.590756-13.590755c-7.507058 0-13.590756 6.083698-13.590755 13.590755z m0 0M894.308124 465.880178c0 10.724693 8.69376 19.421867 19.417316 19.421866s19.417316-8.697173 19.417316-19.421866-8.69376-19.418453-19.417316-19.418454-19.417316 8.69376-19.417316 19.418454z m0 0" fill="#3FCF77" /><path d="M919.904711 420.747947c6.485333 0 12.904676 0.466489 19.269405 1.1776-17.316978-80.633173-103.520711-140.545138-201.928249-140.545138-110.019698 0-200.131698 74.975004-200.131698 170.192213 0 54.984249 29.980444 100.094862 80.082489 135.113387l-20.015787 60.197547 69.961956-35.078827c25.033387 4.948196 45.121991 10.048853 70.104177 10.048853 6.279396 0 12.504178-0.311751 18.681174-0.793031-3.909404-13.37344-6.176996-27.386311-6.176996-41.937351-0.001138-87.430258 75.081956-158.375253 170.153529-158.375253z m-109.018453-58.322489c17.087147 0 30.939591 13.852444 30.939591 30.939591 0 17.088284-13.852444 30.940729-30.939591 30.940729-17.09056 0-30.943004-13.852444-30.943005-30.940729 0-17.087147 13.852444-30.939591 30.943005-30.939591z m-140.027449 62.502684c-17.087147 0-30.939591-13.851307-30.939591-30.938453 0-17.088284 13.852444-30.939591 30.939591-30.939591 17.09056 0 30.944142 13.851307 30.944142 30.939591 0 17.087147-13.852444 30.938453-30.944142 30.938453z m430.291627 152.441742c0-80.009671-80.063147-145.231644-169.987414-145.231644-95.222898 0-170.21952 65.220836-170.21952 145.231644 0 80.153031 74.996622 145.229369 170.21952 145.229369 19.928178 0 40.030436-5.028978 60.04736-10.046577l54.89664 30.066915-15.053938-50.013298c40.17152-30.13632 70.097351-70.099627 70.097352-115.236409zM878.865067 554.942009c-12.166258 0-22.031929-9.869084-22.031929-22.034205 0-12.168533 9.865671-22.034204 22.031929-22.034204 12.167396 0 22.031929 9.864533 22.031929 22.034204 0.004551 12.169671-9.863396 22.034204-22.031929 22.034205z m110.020835 1.24928c-12.170809 0-22.031929-9.865671-22.031929-22.034205 0-12.169671 9.863396-22.029653 22.031929-22.029653 12.169671 0 22.034204 9.863396 22.034205 22.029653 0 12.168533-9.864533 22.034204-22.034205 22.034205z m0 0" fill="#FFFFFF" /></svg>