<?xml version="1.0" standalone="no"?><!DOCTYPE svg PUBLIC "-//W3C//DTD SVG 1.1//EN" "http://www.w3.org/Graphics/SVG/1.1/DTD/svg11.dtd"><svg class="icon" width="16px" height="16.00px" viewBox="0 0 1024 1024" version="1.1" xmlns="http://www.w3.org/2000/svg"><path fill="#C7C7C7" d="M500.8 0c145.6 0 262.4 115.2 262.4 256s-116.8 256-262.4 256-262.4-115.2-262.4-256S356.8 0 500.8 0z m0 0c145.6 0 262.4 115.2 262.4 256s-116.8 256-262.4 256-262.4-115.2-262.4-256S356.8 0 500.8 0z m-97.6 596.8h219.2C808 596.8 960 745.6 960 928v20.8c0 72-152 75.2-339.2 75.2H403.2C216 1024 64 1024 64 948.8V928c0-182.4 152-331.2 339.2-331.2z" /></svg>