<?xml version="1.0" standalone="no"?><!DOCTYPE svg PUBLIC "-//W3C//DTD SVG 1.1//EN" "http://www.w3.org/Graphics/SVG/1.1/DTD/svg11.dtd"><svg class="icon" width="16px" height="15.98px" viewBox="0 0 1025 1024" version="1.1" xmlns="http://www.w3.org/2000/svg"><path fill="#7A7B7B" d="M566.369075 485.376l-28.672 28.672c-18.432 18.432-18.432 47.104 0 65.536l71.68 73.728c18.432 18.432 47.104 18.432 65.536 0l196.608-192.512c18.432-18.432 18.432-47.104 0-65.536L799.841075 321.536c-18.432-18.432-47.104-18.432-65.536 0l-28.672 28.672-163.84-165.888 28.672-28.672c18.432-18.432 18.432-47.104 0-65.536L498.785075 16.384c-18.432-18.432-47.104-18.432-65.536 0l-196.608 192.512c-18.432 18.432-18.432 47.104 0 65.536L308.321075 348.16c18.432 18.432 47.104 18.432 65.536 0l28.672-28.672 10.24 10.24L33.889075 700.416S-31.646925 788.48 19.553075 839.68c77.824 77.824 161.792 8.192 161.792 8.192L554.081075 475.136l12.288 10.24z m0 0M986.209075 944.128h-102.4v-75.776c0-12.288-20.48-20.48-47.104-20.48h-22.528v-45.056c0-26.624-20.48-47.104-47.104-47.104H369.761075c-26.624 0-47.104 20.48-47.104 47.104v45.056h-18.432c-26.624 0-47.104 10.24-47.104 20.48v75.776H140.385075c-22.528 0-38.912 18.432-38.912 38.912 0 22.528 18.432 38.912 38.912 38.912H984.161075c22.528 0 38.912-18.432 38.912-38.912 2.048-20.48-16.384-38.912-36.864-38.912z m0 0" /></svg>