<?xml version="1.0" standalone="no"?><!DOCTYPE svg PUBLIC "-//W3C//DTD SVG 1.1//EN" "http://www.w3.org/Graphics/SVG/1.1/DTD/svg11.dtd"><svg class="icon" width="16px" height="16.00px" viewBox="0 0 1024 1024" version="1.1" xmlns="http://www.w3.org/2000/svg"><path fill="#7A7B7B" d="M841.152 427.584H768.64v-169.6c0-142.016-115.072-257.472-256.64-257.472a257.344 257.344 0 0 0-256.64 257.536v169.6H182.784a63.488 63.488 0 0 0-63.36 63.552v464.384c0 35.2 28.352 63.616 63.36 63.616h658.432c35.008 0 63.36-28.48 63.36-63.616V491.2a63.488 63.488 0 0 0-63.36-63.616z m-293.568 307.904v101.376c0 4.48-3.776 8.384-8.32 8.384h-54.528a8.448 8.448 0 0 1-8.32-8.384v-101.376A78.976 78.976 0 0 1 512 585.984a79.04 79.04 0 0 1 35.584 149.504z m122.496-307.84H353.92V262.144c0-87.488 71.04-158.72 158.144-158.72a158.464 158.464 0 0 1 157.952 158.72v165.376z" /></svg>