<?xml version="1.0" standalone="no"?><!DOCTYPE svg PUBLIC "-//W3C//DTD SVG 1.1//EN" "http://www.w3.org/Graphics/SVG/1.1/DTD/svg11.dtd"><svg class="icon" width="16px" height="14.91px" viewBox="0 0 1099 1024" version="1.1" xmlns="http://www.w3.org/2000/svg"><path fill="#7A7B7B" d="M112.564148 762.235259V455.376593H984.936296v306.858666H639.279407v48.203852h376.225186v76.420741h-376.225186v51.730963h446.767408v82.299259H14.980741v-82.299259h446.767407v-51.730963H84.347259v-76.420741H461.748148v-48.203852H112.564148zM109.037037 295.480889V13.312h881.777778v282.168889H109.037037zM17.332148 417.754074v-83.474963H1084.871111v83.474963H17.332148zM272.459852 86.20563v39.973926h556.107852V86.20563H272.459852z m0 136.381629h556.107852V184.964741H272.459852v37.622518z m3.527111 466.754371h185.761185v-49.379556h-185.761185v49.379556z m363.292444 0h182.234074v-49.379556h-182.234074v49.379556z m-363.292444-161.071408V576.474074h185.761185v-48.203852h-185.761185z m545.526518 0h-182.234074V576.474074h182.234074v-48.203852z" /></svg>