<?xml version="1.0" standalone="no"?><!DOCTYPE svg PUBLIC "-//W3C//DTD SVG 1.1//EN" "http://www.w3.org/Graphics/SVG/1.1/DTD/svg11.dtd"><svg class="icon" width="32px" height="32.00px" viewBox="0 0 1024 1024" version="1.1" xmlns="http://www.w3.org/2000/svg"><path fill="#ffffff" d="M570.9 874.6c-13 0-26.2-3.5-38-10.6L332.7 744.7c-0.9-0.6-1.9-1.2-2.7-1.8-8-4.1-16.4-6.2-25.1-6.2H165.8c-56.2 0-101.9-50.7-101.9-113V398.1c0-62.4 45.7-113 101.9-113H305c9.7 0 19.6-2.8 28.4-8.1l200.2-119.3c23.2-13.8 51-14.1 74.5-0.9 26.3 14.9 42.5 44.3 42.5 76.7l-0.3 131-0.3 423.8c0 32.4-16.3 61.8-42.5 76.7-11.6 6.4-24 9.6-36.6 9.6z m270.3-128.2c-9 0-18-3.4-25-10.3-13.7-13.7-13.7-36.1 0-49.8 46.8-46.8 72.6-109.1 72.6-175.4 0-66.3-25.8-128.6-72.6-175.4-13.7-13.7-13.7-36.1 0-49.8 13.7-13.7 36.1-13.7 49.8 0 60.2 60.2 93.3 140.1 93.3 225.2S926.2 676 866 736.1c-6.8 6.9-15.8 10.3-24.8 10.3z m0 0M722.4 664.9c-9 0-18.1-3.4-25-10.3-13.7-13.7-13.7-36.1 0-49.8 51.8-51.8 51.8-136.2 0-188-13.7-13.7-13.7-36.1 0-49.8 13.7-13.7 36.1-13.7 49.8 0 79.3 79.3 79.3 208.4 0 287.7-6.8 6.8-15.8 10.2-24.8 10.2z m0 0" /></svg>