<?xml version="1.0" standalone="no"?><!DOCTYPE svg PUBLIC "-//W3C//DTD SVG 1.1//EN" "http://www.w3.org/Graphics/SVG/1.1/DTD/svg11.dtd"><svg class="icon" width="32px" height="32.00px" viewBox="0 0 1024 1024" version="1.1" xmlns="http://www.w3.org/2000/svg"><path fill="#ffffff" d="M883.256889 170.666667H140.629333C125.383111 170.666667 113.777778 181.816889 113.777778 194.218667v635.562666c0 12.401778 11.605333 23.552 26.851555 23.552h742.741334c15.246222 0 26.851556-11.150222 26.851555-23.552V194.332444c0-12.515556-11.662222-23.665778-26.965333-23.665777zM967.111111 194.218667v635.562666c0 44.373333-37.546667 80.440889-83.740444 80.440889H140.629333C94.435556 910.222222 56.888889 874.154667 56.888889 829.781333V194.218667C56.888889 149.845333 94.435556 113.777778 140.629333 113.777778h742.627556c46.193778 0 83.740444 36.067556 83.854222 80.440889zM624.128 616.106667c0 6.656 2.844444 12.856889 8.078222 17.521777l0.113778 0.113778a29.297778 29.297778 0 0 0 19.626667 7.224889c7.395556 0 14.392889-2.616889 19.626666-7.338667l116.736-104.049777a23.04 23.04 0 0 0 0-35.100445L671.573333 390.257778a29.184 29.184 0 0 0-19.342222-6.940445 29.354667 29.354667 0 0 0-20.024889 7.509334 22.926222 22.926222 0 0 0 0.113778 34.588444L729.201778 512l-96.881778 86.641778a23.381333 23.381333 0 0 0-8.192 17.521778z m-166.684444 65.422222l0.227555 0.113778c2.56 0.682667 5.12 1.024 7.736889 1.024 12.288 0 23.210667-7.395556 26.680889-17.976889l93.240889-291.612445a22.186667 22.186667 0 0 0-2.389334-18.773333 27.306667 27.306667 0 0 0-16.497777-11.889778h-0.113778A32.085333 32.085333 0 0 0 558.364444 341.333333a27.534222 27.534222 0 0 0-26.339555 17.464889c-0.113778 0.170667-0.113778 0.398222-0.170667 0.568889l-93.354666 291.555556a22.186667 22.186667 0 0 0 2.332444 18.773333 27.477333 27.477333 0 0 0 16.668444 11.889778z m-105.130667-47.786667a29.297778 29.297778 0 0 0 19.626667 7.224889c7.395556 0 14.392889-2.616889 19.740444-7.338667a23.04 23.04 0 0 0 0-35.043555L294.684444 512l96.995556-86.698667a23.04 23.04 0 0 0-0.625778-35.100444 29.184 29.184 0 0 0-19.342222-6.940445 29.411556 29.411556 0 0 0-19.399111 7.054223L235.690667 494.364444a23.04 23.04 0 0 0 0 35.100445l116.622222 104.220444z" /></svg>