<?xml version="1.0" standalone="no"?><!DOCTYPE svg PUBLIC "-//W3C//DTD SVG 1.1//EN" "http://www.w3.org/Graphics/SVG/1.1/DTD/svg11.dtd"><svg class="icon" width="32px" height="32.00px" viewBox="0 0 1024 1024" version="1.1" xmlns="http://www.w3.org/2000/svg"><path fill="#ffffff" d="M982.72 1013.888H55.424a44.48 44.48 0 0 1-42.56-42.56V708.48c0-42.688 21.44-65.024 43.968-43.648l125.44 98.688c16.832 14.464 42.112 34.048 56.192 16.96l143.744-174.528c14.08-17.088 39.552-41.216 56.512-26.944l123.712 107.648c16.96 14.272 52.096 39.168 65.92 21.76l307.712-370.816c41.6-47.424 87.936-36.288 87.936 21.76v611.968c0 22.144-19.072 42.56-41.28 42.56zM621.824 558.4a68.16 68.16 0 0 1-97.536 10.24l-139.52-117.504-140.16 184.96a68.224 68.224 0 0 1-97.28 11.52L24.96 547.648A68.096 68.096 0 0 1 111.232 442.24l67.584 55.296 140.672-185.728a68.096 68.096 0 0 1 98.176-11.008l140.288 118.144 181.184-227.328-50.496-41.984c-35.84-29.76-27.84-61.952 17.728-71.616L968.96 22.4c45.568-9.6 59.648 12.736 31.296 49.728L621.824 558.4z" /></svg>