<?xml version="1.0" standalone="no"?><!DOCTYPE svg PUBLIC "-//W3C//DTD SVG 1.1//EN" "http://www.w3.org/Graphics/SVG/1.1/DTD/svg11.dtd"><svg class="icon" width="32px" height="32.00px" viewBox="0 0 1024 1024" version="1.1" xmlns="http://www.w3.org/2000/svg"><path fill="#ffffff" d="M1010.841587 1010.841613c-14.714866 14.714866-34.339807 14.714866-49.054673 0l-137.35411-137.35411c-88.299436 78.489525-201.123649 122.639243-323.762892 122.639243-284.51813 0-510.171675-235.468576-500.361765-519.986706C10.118058 221.061883 221.056737 10.118083 481.04497 0.308173c284.51813-9.809911 515.081751 215.843635 515.081751 495.456809 0 122.639243-44.149718 235.463456-122.639244 323.762892l137.35411 137.35411c14.714866 19.619821 14.714866 39.244763 0 53.959629zM696.888605 461.425174v58.864585c0 19.624941 14.719986 34.339807 34.339808 34.339807 19.624941 0 34.339807-14.714866 34.339807-34.339807V378.030694c0-19.619821-14.714866-34.339807-34.339807-34.339808h-142.259065c-19.619821 0-34.339807 14.719986-34.339808 34.339808 0 19.624941 14.719986 34.339807 34.339808 34.339807h58.864584l-137.35411 137.35411L417.280551 456.520219c-14.714866-19.624941-44.149718-19.624941-63.76954 0l-132.449154 132.449154c-14.714866 14.714866-14.714866 34.334687 0 49.049554 14.714866 14.719986 34.339807 14.719986 49.054674 0l117.734288-107.919258 88.299436 88.299436c14.714866 19.624941 44.149718 19.624941 63.769539 0l156.979051-156.973931z" /></svg>