<?xml version="1.0" standalone="no"?><!DOCTYPE svg PUBLIC "-//W3C//DTD SVG 1.1//EN" "http://www.w3.org/Graphics/SVG/1.1/DTD/svg11.dtd"><svg class="icon" width="32px" height="32.00px" viewBox="0 0 1024 1024" version="1.1" xmlns="http://www.w3.org/2000/svg"><path fill="#ffffff" d="M160 883.2a12.8 12.8 0 0 0 0 25.6h768v60.5184A54.7584 54.7584 0 0 1 874.1504 1024H137.0496A54.7584 54.7584 0 0 1 83.2 969.3184V54.6816A54.7584 54.7584 0 0 1 137.0496 0h60.928v337.792a39.4752 39.4752 0 0 0 20.1344 38.656c4.8128 2.7648 10.24 4.2752 15.7696 4.416a42.9184 42.9184 0 0 0 26.6624-8.832l56.0256-40.8832c4.2496-2.2528 9.344-2.2528 13.5936 0l56.0384 38.6688a42.24 42.24 0 0 0 42.432 4.416 39.4752 39.4752 0 0 0 20.1216-38.656V0h428.1088a52.8512 52.8512 0 0 1 51.2 54.6816V883.2H160z m127.1936-597.3376l-38.08 27.072V0h145.7792v312.9344l-33.7152-24.8576a66.944 66.944 0 0 0-73.984-2.2144z" /></svg>