<?xml version="1.0" standalone="no"?><!DOCTYPE svg PUBLIC "-//W3C//DTD SVG 1.1//EN" "http://www.w3.org/Graphics/SVG/1.1/DTD/svg11.dtd"><svg class="icon" width="32px" height="32.00px" viewBox="0 0 1024 1024" version="1.1" xmlns="http://www.w3.org/2000/svg"><path fill="#ffffff" d="M953.514667 739.498667H69.802667A19.285333 19.285333 0 0 0 51.2 758.784v1.536a19.285333 19.285333 0 0 0 19.285333 19.285333h224.938667l-136.533333 184.490667c-11.434667 15.36-14.165333 34.133333-5.973334 40.277333s23.893333 0 35.328-15.36l144.725334-194.901333a58.88 58.88 0 0 0 7.850666-14.506667h335.189334a57.173333 57.173333 0 0 0 8.533333 15.701334l147.797333 192.853333c11.605333 15.189333 27.818667 22.016 36.010667 15.189333s5.461333-24.576-6.144-39.936l-140.970667-183.808h232.277334A19.285333 19.285333 0 0 0 972.8 760.32v-1.536a19.285333 19.285333 0 0 0-19.285333-19.285333z m-44.714667-692.906667H102.4a64 64 0 0 0-64.341333 64v512A64 64 0 0 0 102.4 686.250667h806.4A64 64 0 0 0 972.8 622.250667v-512a64 64 0 0 0-64-63.658667zM434.858667 494.933333l1.024-268.8 204.8 135.509334z" /></svg>