<?xml version="1.0" standalone="no"?><!DOCTYPE svg PUBLIC "-//W3C//DTD SVG 1.1//EN" "http://www.w3.org/Graphics/SVG/1.1/DTD/svg11.dtd"><svg class="icon" width="32px" height="32.00px" viewBox="0 0 1024 1024" version="1.1" xmlns="http://www.w3.org/2000/svg"><path fill="#ffffff" d="M939.864 183.32c-0.18 0.284-0.4 0.54-0.576 0.8s-0.308 0.584-0.488 0.868l-356.648 558.176-95.948 39.524c-21.692 10-30.38-15.908-30.488-21.148l-2.46-91.964L824.72 112.324c0.18-0.284 0.38-0.548 0.576-0.8s0.308-0.588 0.488-0.872a32 32 0 0 1 44.352-9.54l59.42 37.876a32.272 32.272 0 0 1 10.308 44.332zM492 680v60l60-24 292.036-449.92-54.664-34.8z m391.2-518.444l-17.628-11.228c-19.14-12.376-26.8 10.7-26.584 10.652-16.356 25.896-24.248 37.924-27.832 43.032l-0.872-0.556s-4.604 8.368 0.872 0.556l49.028 31.2s-8.244 16 29.268-43.368c0.32 0.412 17.912-17.74-6.252-30.288zM192 776v-40h188v40H192z m0-188h216v40H192v-40z m0-300h360v40H192V288z m0 148h276v40H192v-40zM120 884h704V452h52v480H76V132h640v48H120v704z"  /></svg>