<?xml version="1.0" standalone="no"?><!DOCTYPE svg PUBLIC "-//W3C//DTD SVG 1.1//EN" "http://www.w3.org/Graphics/SVG/1.1/DTD/svg11.dtd"><svg class="icon" width="32px" height="32.00px" viewBox="0 0 1024 1024" version="1.1" xmlns="http://www.w3.org/2000/svg"><path fill="#ffffff" d="M639.012 277.932s10.618-15.521 15.172-22.335c4.541-6.822 11.371-12.879 15.168-18.177 7.574-10.603 15.144-20.651 22.722-30.114 7.574-9.471 18.565-18.759 32.957-27.849 6.065-3.781 11.177-8.707 15.346-14.768 4.161-6.066 6.814-12.123 7.954-18.189 1.132-6.062 0.376-11.929-2.276-17.619-2.653-5.674-7.76-10.029-15.342-13.062-6.818-2.265-12.693-3.033-17.611-2.265-4.925 0.748-9.847 2.075-14.776 3.971a441.2 441.2 0 0 0-15.338 6.252c-5.305 2.265-11.751 3.397-19.317 3.397-7.578 0-13.83-1.326-18.751-3.967a68.666 68.666 0 0 1-13.64-9.653c-4.173-3.801-8.52-7.772-13.066-11.945-4.545-4.165-10.607-7.376-18.189-9.649-15.144-6.073-27.268-7.198-36.358-3.409-9.098 3.785-18.189 9.839-27.279 18.181-7.574 7.57-13.632 12.876-18.177 15.908-2.28 1.509-4.169 2.261-5.682 2.261a69.36 69.36 0 0 1-12.507-7.95 111.006 111.006 0 0 1-10.797-7.372c-3.405-2.657-6.62-5.872-9.664-9.672-6.054-6.054-15.14-10.029-27.268-11.937-12.119-1.881-23.106 0.202-32.957 6.263-12.876 8.323-21.966 15.346-27.271 21.02-5.301 5.674-13.256 9.649-23.866 11.922-6.058 1.524-12.689 1.156-19.887-1.132a1836.063 1836.063 0 0 0-22.16-6.814c-7.574-2.277-14.772-3.777-21.59-4.549-6.826-0.752-12.883 0.772-18.181 4.549-10.611 8.33-14.012 18.367-10.231 30.122 3.793 11.747 10.611 21.028 20.457 27.834 9.09 6.829 18.371 14.586 27.842 23.308 9.467 8.707 17.995 18.743 25.569 30.114 3.785 6.05 10.999 12.88 16.304 20.454 5.305 7.578 21.435 27.271 21.435 27.271l251.255-0.4z m-26.969 40.714c7.291 9.734 16.413 22.23 27.349 33.787 9.114 10.332 20.357 22.024 33.729 35.094 13.364 13.062 28.862 26.891 46.484 41.47 14.586 12.767 29.629 27.799 45.127 45.123 15.497 17.324 29.017 37.529 40.566 60.624 11.545 23.091 19.593 49.672 24.153 79.747 4.557 30.091 3.793 63.661-2.28 100.732-5.468 30.397-16.254 59.108-32.36 86.143-16.102 27.043-37.525 50.587-64.266 70.641-26.732 20.062-58.487 36.005-95.256 47.861-36.765 11.844-76.544 17.77-123.338 17.77-48.008 0-92.545-6.829-129.617-20.516-37.064-13.667-68.516-31.437-94.341-53.317-25.825-21.881-46.333-46.337-61.528-73.372-15.191-27.043-25.216-53.942-30.083-80.674-5.464-29.773-6.225-58.347-2.277-85.685 3.948-27.345 11.088-53.027 21.419-77.036 10.328-23.994 23.246-46.019 38.743-66.077 15.497-20.054 32.36-37.975 50.587-53.783 15.8-13.981 30.087-27.186 42.846-39.651 12.759-12.465 23.393-23.859 31.902-34.186 10.328-11.545 19.445-24.351 27.349-34.694h205.092zM511.729 579.714l-24.615-24.619-19.143-19.143c-6.069-6.081-10.332-10.626-12.763-13.667-4.859-4.254-11.239-7.749-19.139-10.487-7.9-2.738-14.586-1.051-20.054 5.011-4.859 6.698-6.077 13.225-3.646 19.6 2.432 6.391 5.166 11.394 8.202 15.047l13.671 12.752a4467.825 4467.825 0 0 0 21.881 23.707c9.114 9.719 6.174 20.054 17.114 30.995l-0.915 9.017h-57.374c-5.472 0-10.18 2.129-14.136 6.391-3.94 4.243-5.922 9.591-5.922 14.458 0 4.859 1.827 9.354 5.468 13 3.649 3.646 8.509 5.472 14.59 5.472h58.045v38.2h-57.378c-5.472 0-10.184 1.668-14.132 5.011-3.948 3.351-5.926 11.092-5.926 16.556-0.609 4.859 1.063 9.211 5.011 12.554 3.956 3.335 8.966 5.003 15.047 5.003h57.378v20.236c0.613 8.513 3.339 10.797 8.199 14.132 4.867 3.359 23.242 5.018 30.537 5.018 7.291 0.605 25.635-1.66 30.199-6.837 4.553-5.154 6.83-6.841 6.83-12.313V744.58h57.203c6.077 0 11.092-1.373 15.04-4.111 3.952-2.726 5.623-8.586 5.015-14.663 0-12.752-8.509-21.268-25.522-21.268h-51.735l0.248-38.51 53.977 0.314c8.509 0.605 14.582-1.07 18.231-5.018 3.646-3.952 5.468-7.574 5.468-13.042 0-4.859-1.97-11.386-5.922-15.334-3.948-3.952-10.184-5.93-18.693-5.93h-53.31v-7.198c10.335-9.719 7.33-19.143 15.839-28.257a1600.108 1600.108 0 0 0 21.877-22.327c7.291-7.601 12.759-12.918 16.405-15.951 13.981-12.158 17.021-22.788 9.118-31.91-4.251-5.464-9.727-8.202-16.405-8.202-6.686 0-12.763 2.435-18.235 7.287-3.041 2.432-8.202 6.837-15.497 13.221a1260.486 1260.486 0 0 0-21.877 19.604 5410.774 5410.774 0 0 0-28.254 26.429z m0 0" /></svg>