<?xml version="1.0" standalone="no"?><!DOCTYPE svg PUBLIC "-//W3C//DTD SVG 1.1//EN" "http://www.w3.org/Graphics/SVG/1.1/DTD/svg11.dtd"><svg class="icon" width="32px" height="32.00px" viewBox="0 0 1024 1024" version="1.1" xmlns="http://www.w3.org/2000/svg"><path fill="#ffffff" d="M930.912 80H93.088C41.68 80 0 122.144 0 174.112v611.76C0 837.856 41.68 880 93.088 880h837.824C982.32 880 1024 837.856 1024 785.888V174.128C1024 122.144 982.32 80 930.912 80z m46.544 621.184L687.792 497.472 977.456 284.48v416.704zM46.544 174.112c0-25.952 20.88-47.056 46.544-47.056h837.824c25.664 0 46.544 21.104 46.544 47.056v52.192L512 568.56 46.544 226.32v-52.208z m289.664 323.36L46.544 701.184V284.48l289.664 212.992z m594.704 335.472H93.088c-25.664 0-46.544-21.104-46.544-47.056v-27.392l329.488-231.728 122.272 89.92a23.072 23.072 0 0 0 27.36 0l122.272-89.92 329.488 231.728v27.392c0.032 25.936-20.848 47.056-46.512 47.056z"  /></svg>